<svg xmlns="http://www.w3.org/2000/svg" width="500" height="500" viewBox="0 0 500 500">
<g>
<path d="M 236.48 240.34 C229.34,242.75 222.71,245.06 221.75,245.47 C219.33,246.50 219.51,245.93 223.48,240.03 C226.67,235.28 231.00,223.56 231.00,219.64 C231.00,217.64 231.35,217.62 235.35,219.39 C239.86,221.39 248.73,224.06 253.99,225.01 C263.84,226.78 278.18,229.85 278.61,230.28 C278.86,230.53 276.69,231.04 273.78,231.42 C262.53,232.87 248.93,236.12 236.48,240.34 ZM 142.50 285.57 C140.30,286.90 137.96,287.99 137.31,287.99 C135.70,288.00 134.73,286.28 135.93,285.54 C137.33,284.68 142.26,277.13 144.45,272.50 C148.27,264.43 146.40,248.82 140.91,242.95 C140.13,242.12 138.47,240.00 137.22,238.22 C135.03,235.12 135.02,235.00 136.91,235.00 C140.80,235.00 147.88,240.32 150.24,245.00 C152.14,248.78 152.50,251.10 152.50,259.50 C152.50,268.51 152.21,270.10 149.59,275.50 C147.98,278.80 146.63,281.87 146.59,282.32 C146.54,282.78 144.70,284.24 142.50,285.57 ZM 264.60 291.42 C262.57,291.80 258.94,292.95 256.53,293.99 L 252.14 295.87 L 244.54 288.32 C238.21,282.02 237.41,280.89 239.72,281.48 C246.22,283.14 266.72,286.96 269.25,286.98 C271.93,287.00 271.95,287.05 270.14,288.86 C269.11,289.89 266.62,291.04 264.60,291.42 ZM 329.32 260.85 C328.11,261.48 326.99,261.96 326.82,261.92 C317.72,259.65 317.60,248.00 326.67,248.00 C330.40,248.00 333.00,250.72 332.98,254.58 C332.97,258.06 332.23,259.32 329.32,260.85 ZM 362.72 262.69 C362.54,266.72 362.16,267.55 360.41,267.80 C357.66,268.19 356.36,266.29 356.44,262.00 C356.49,258.80 356.78,258.47 359.72,258.19 L 362.94 257.88 ZM 244.84 251.49 C243.64,252.69 237.43,252.94 235.00,251.88 C232.62,250.84 232.59,250.75 234.50,249.97 C238.53,248.30 246.81,249.52 244.84,251.49 ZM 299.76 240.75 C300.05,241.66 298.50,242.00 294.08,242.00 C290.74,242.00 288.00,241.56 288.00,241.02 C288.00,238.64 298.98,238.39 299.76,240.75 ZM 281.00 246.50 C282.08,247.81 281.45,248.00 276.12,248.00 C272.76,248.00 270.00,247.60 270.00,247.11 C270.00,244.70 279.09,244.20 281.00,246.50 ZM 264.00 251.05 C264.00,251.57 261.30,252.00 258.00,252.00 C251.90,252.00 249.95,250.55 254.51,249.41 C257.59,248.64 264.00,249.74 264.00,251.05 ZM 223.42 264.39 C222.55,264.73 221.09,264.93 220.17,264.85 C211.22,264.05 210.38,262.00 219.00,262.00 C224.74,262.00 226.78,263.10 223.42,264.39 ZM 280.76 258.75 C281.05,259.65 279.60,260.00 275.58,260.00 C269.90,260.00 268.06,258.53 272.38,257.44 C275.79,256.59 280.28,257.29 280.76,258.75 ZM 243.62 264.00 C242.87,264.00 240.96,264.25 239.38,264.56 C237.57,264.92 235.76,264.56 234.50,263.59 C232.64,262.17 232.93,262.06 238.75,262.03 C242.27,262.01 245.00,262.44 245.00,263.00 C245.00,263.55 244.38,264.00 243.62,264.00 ZM 264.00 263.00 C264.00,263.56 261.33,264.00 258.00,264.00 C254.67,264.00 252.00,263.56 252.00,263.00 C252.00,262.44 254.67,262.00 258.00,262.00 C261.33,262.00 264.00,262.44 264.00,263.00 ZM 264.00 275.00 C264.00,275.56 261.33,276.00 258.00,276.00 C254.67,276.00 252.00,275.56 252.00,275.00 C252.00,274.44 254.67,274.00 258.00,274.00 C261.33,274.00 264.00,274.44 264.00,275.00 ZM 299.50 253.00 C299.16,253.55 296.43,254.00 293.44,254.00 C290.45,254.00 288.00,253.55 288.00,253.00 C288.00,252.44 290.69,252.00 294.06,252.00 C297.84,252.00 299.89,252.38 299.50,253.00 ZM 281.50 271.00 C281.89,271.62 279.84,272.00 276.06,272.00 C272.69,272.00 270.00,271.56 270.00,271.00 C270.00,270.45 272.45,270.00 275.44,270.00 C278.43,270.00 281.16,270.45 281.50,271.00 ZM 299.00 265.00 C299.00,265.55 296.52,266.00 293.50,266.00 C290.48,266.00 288.00,265.55 288.00,265.00 C288.00,264.45 290.48,264.00 293.50,264.00 C296.52,264.00 299.00,264.45 299.00,265.00 ZM 299.00 277.00 C299.00,277.55 296.52,278.00 293.50,278.00 C290.48,278.00 288.00,277.55 288.00,277.00 C288.00,276.45 290.48,276.00 293.50,276.00 C296.52,276.00 299.00,276.45 299.00,277.00 Z" fill="rgb(185,6,8)"/>
<path d="M 236.48 240.34 C248.93,236.12 262.53,232.87 273.78,231.42 C276.69,231.04 278.86,230.53 278.61,230.28 C278.41,230.08 275.20,229.30 270.82,228.36 C273.15,228.72 275.38,228.95 276.75,228.96 C279.09,228.98 281.00,229.44 281.00,229.99 C281.00,230.53 281.79,230.88 282.75,230.77 C286.57,230.33 304.90,232.19 311.50,233.69 C320.07,235.64 331.57,240.08 337.26,243.64 C339.59,245.10 344.59,249.02 348.36,252.35 C354.53,257.79 355.62,258.38 359.09,258.13 L 362.94 257.85 L 362.94 257.88 L 359.72 258.19 C356.78,258.47 356.49,258.80 356.44,262.00 C356.39,264.96 356.99,266.78 358.27,267.50 L 357.85 267.50 C354.49,267.50 352.54,268.10 350.85,269.64 C343.61,276.24 331.08,282.18 316.00,286.16 C308.90,288.04 304.60,288.43 289.94,288.56 C280.29,288.65 271.51,289.17 270.44,289.73 C269.37,290.28 266.70,291.06 264.50,291.46 C262.30,291.85 257.17,293.71 253.11,295.59 C245.43,299.14 244.00,299.54 244.00,298.20 C244.00,296.65 233.75,285.92 228.13,281.60 C221.53,276.52 210.46,270.71 204.00,268.93 C196.63,266.90 176.52,267.18 170.00,269.40 C161.88,272.17 156.22,275.23 149.50,280.48 C148.05,281.61 146.74,282.60 145.55,283.45 C146.18,282.94 146.56,282.53 146.59,282.32 C146.63,281.87 147.98,278.80 149.59,275.50 C152.21,270.10 152.50,268.51 152.50,259.50 C152.50,251.10 152.14,248.78 150.24,245.00 C149.20,242.94 147.25,240.76 145.06,238.96 C147.46,240.58 150.35,242.70 153.76,245.34 C162.07,251.79 175.59,256.96 184.19,256.99 C193.32,257.02 208.74,248.29 215.70,239.17 C219.10,234.71 223.00,223.48 223.00,218.14 C223.00,214.19 224.10,214.17 232.21,217.90 C236.53,219.89 241.01,221.58 245.40,222.90 C241.62,221.79 237.83,220.49 235.35,219.39 C231.35,217.62 231.00,217.64 231.00,219.64 C231.00,223.56 226.67,235.28 223.48,240.03 C219.51,245.93 219.33,246.50 221.75,245.47 C222.71,245.06 229.34,242.75 236.48,240.34 ZM 321.50 263.84 C328.42,267.65 337.00,262.76 337.00,255.01 C337.00,249.83 335.75,247.44 332.02,245.51 C327.21,243.02 323.03,243.58 319.30,247.20 C316.62,249.79 316.00,251.16 316.02,254.45 C316.05,258.64 317.94,261.88 321.50,263.84 ZM 264.60 291.42 C266.62,291.04 269.11,289.89 270.14,288.86 C271.95,287.05 271.93,287.00 269.25,286.98 C266.72,286.96 246.22,283.14 239.72,281.48 C237.41,280.89 238.21,282.02 244.54,288.32 L 252.14 295.87 L 256.53 293.99 C258.94,292.95 262.57,291.80 264.60,291.42 ZM 244.84 251.49 C246.81,249.52 238.53,248.30 234.50,249.97 C232.59,250.75 232.62,250.84 235.00,251.88 C237.43,252.94 243.64,252.69 244.84,251.49 ZM 299.76 240.75 C298.98,238.39 288.00,238.64 288.00,241.02 C288.00,241.56 290.74,242.00 294.08,242.00 C298.50,242.00 300.05,241.66 299.76,240.75 ZM 281.00 246.50 C279.09,244.20 270.00,244.70 270.00,247.11 C270.00,247.60 272.76,248.00 276.12,248.00 C281.45,248.00 282.08,247.81 281.00,246.50 ZM 264.00 251.05 C264.00,249.74 257.59,248.64 254.51,249.41 C249.95,250.55 251.90,252.00 258.00,252.00 C261.30,252.00 264.00,251.57 264.00,251.05 ZM 223.42 264.39 C226.78,263.10 224.74,262.00 219.00,262.00 C210.38,262.00 211.22,264.05 220.17,264.85 C221.09,264.93 222.55,264.73 223.42,264.39 ZM 280.76 258.75 C280.28,257.29 275.79,256.59 272.38,257.44 C268.06,258.53 269.90,260.00 275.58,260.00 C279.60,260.00 281.05,259.65 280.76,258.75 ZM 243.62 264.00 C244.38,264.00 245.00,263.55 245.00,263.00 C245.00,262.44 242.27,262.01 238.75,262.03 C232.93,262.06 232.64,262.17 234.50,263.59 C235.76,264.56 237.57,264.92 239.38,264.56 C240.96,264.25 242.87,264.00 243.62,264.00 ZM 264.00 263.00 C264.00,262.44 261.33,262.00 258.00,262.00 C254.67,262.00 252.00,262.44 252.00,263.00 C252.00,263.56 254.67,264.00 258.00,264.00 C261.33,264.00 264.00,263.56 264.00,263.00 ZM 264.00 275.00 C264.00,274.44 261.33,274.00 258.00,274.00 C254.67,274.00 252.00,274.44 252.00,275.00 C252.00,275.56 254.67,276.00 258.00,276.00 C261.33,276.00 264.00,275.56 264.00,275.00 ZM 299.50 253.00 C299.89,252.38 297.84,252.00 294.06,252.00 C290.69,252.00 288.00,252.44 288.00,253.00 C288.00,253.55 290.45,254.00 293.44,254.00 C296.43,254.00 299.16,253.55 299.50,253.00 ZM 281.50 271.00 C281.16,270.45 278.43,270.00 275.44,270.00 C272.45,270.00 270.00,270.45 270.00,271.00 C270.00,271.56 272.69,272.00 276.06,272.00 C279.84,272.00 281.89,271.62 281.50,271.00 ZM 299.00 265.00 C299.00,264.45 296.52,264.00 293.50,264.00 C290.48,264.00 288.00,264.45 288.00,265.00 C288.00,265.55 290.48,266.00 293.50,266.00 C296.52,266.00 299.00,265.55 299.00,265.00 ZM 299.00 277.00 C299.00,276.45 296.52,276.00 293.50,276.00 C290.48,276.00 288.00,276.45 288.00,277.00 C288.00,277.55 290.48,278.00 293.50,278.00 C296.52,278.00 299.00,277.55 299.00,277.00 ZM 361.42 267.50 C362.31,267.00 362.57,265.83 362.71,262.83 L 362.50 267.50 ZM 135.94 285.53 C136.13,285.30 136.35,285.03 136.62,284.72 C137.64,283.54 138.64,282.25 139.60,280.89 C138.04,283.24 136.61,285.11 135.94,285.53 ZM 135.77 287.33 C135.31,287.09 135.18,286.82 135.40,286.36 C135.37,286.69 135.51,287.04 135.77,287.33 ZM 249.74 224.08 C251.34,224.46 252.91,224.80 254.45,225.07 C255.30,225.23 256.38,225.43 257.58,225.67 C256.34,225.44 255.13,225.21 253.99,225.01 C252.74,224.78 251.29,224.46 249.74,224.08 ZM 137.22 238.22 C135.11,235.25 134.98,235.02 136.64,235.00 C135.02,235.02 135.14,235.28 137.22,238.22 ZM 137.28 235.02 C137.16,235.01 137.04,235.00 136.92,235.00 L 136.99 235.00 C137.08,235.00 137.18,235.01 137.28,235.02 Z" fill="rgb(246,87,86)"/>
<path d="M 0.00 250.00 L 0.00 0.00 L 250.00 0.00 L 500.00 0.00 L 500.00 250.00 L 500.00 500.00 L 250.00 500.00 L 0.00 500.00 L 0.00 250.00 ZM 253.11 295.59 C257.17,293.71 262.30,291.85 264.50,291.46 C266.70,291.06 269.37,290.28 270.44,289.73 C271.51,289.17 280.29,288.65 289.94,288.56 C304.60,288.43 308.90,288.04 316.00,286.16 C331.08,282.18 343.61,276.24 350.85,269.64 C352.54,268.10 354.49,267.50 357.85,267.50 L 362.50 267.50 L 362.72 262.68 L 362.94 257.85 L 359.09 258.13 C355.62,258.38 354.53,257.79 348.36,252.35 C344.59,249.02 339.59,245.10 337.26,243.64 C331.57,240.08 320.07,235.64 311.50,233.69 C304.90,232.19 286.57,230.33 282.75,230.77 C281.79,230.88 281.00,230.53 281.00,229.99 C281.00,229.44 279.09,228.98 276.75,228.96 C274.41,228.95 269.58,228.27 266.00,227.45 C262.42,226.64 257.23,225.57 254.45,225.07 C247.36,223.81 239.57,221.29 232.21,217.90 C224.10,214.17 223.00,214.19 223.00,218.14 C223.00,223.48 219.10,234.71 215.70,239.17 C208.74,248.29 193.32,257.02 184.19,256.99 C175.59,256.96 162.07,251.79 153.76,245.34 C144.70,238.31 139.33,235.00 136.99,235.00 C134.97,235.00 134.97,235.05 137.22,238.22 C138.47,240.00 140.13,242.12 140.91,242.95 C146.38,248.81 148.26,264.40 144.47,272.50 C142.43,276.86 139.61,281.25 136.62,284.72 C134.94,286.67 134.90,287.02 136.26,287.55 C138.27,288.32 142.04,286.31 149.50,280.48 C156.22,275.23 161.88,272.17 170.00,269.40 C176.52,267.18 196.63,266.90 204.00,268.93 C210.46,270.71 221.53,276.52 228.13,281.60 C233.75,285.92 244.00,296.65 244.00,298.20 C244.00,299.54 245.43,299.14 253.11,295.59 ZM 321.50 263.84 C317.94,261.88 316.05,258.64 316.02,254.45 C316.00,251.16 316.62,249.79 319.30,247.20 C323.03,243.58 327.21,243.02 332.02,245.51 C335.75,247.44 337.00,249.83 337.00,255.01 C337.00,262.76 328.42,267.65 321.50,263.84 ZM 329.32 260.85 C332.23,259.32 332.97,258.06 332.98,254.58 C333.00,250.72 330.40,248.00 326.67,248.00 C317.60,248.00 317.72,259.65 326.82,261.92 C326.99,261.96 328.11,261.48 329.32,260.85 Z" fill="rgb(254,254,254)"/>
</g>
</svg>